<svg xmlns="http://www.w3.org/2000/svg" version="1.1" xmlns:xlink="http://www.w3.org/1999/xlink" xmlns:svgjs="http://svgjs.dev/svgjs" width="1500" height="1500" viewBox="0 0 1500 1500"><rect width="1500" height="1500" fill="#000000"></rect><g transform="matrix(0.6666666666666666,0,0,0.6666666666666666,248.5081069414843,134.35376344086035)"><svg viewBox="0 0 202 248" data-background-color="#ffffff" preserveAspectRatio="xMidYMid meet" height="1841" width="1500" xmlns="http://www.w3.org/2000/svg" xmlns:xlink="http://www.w3.org/1999/xlink"><g id="tight-bounds" transform="matrix(1,0,0,1,0.3013623978201849,0.4000000000000057)"><svg viewBox="0 0 201.39727520435966 247.2" height="247.2" width="201.39727520435966"><g><svg viewBox="0 0 201.39727520435966 247.2" height="247.2" width="201.39727520435966"><g><svg viewBox="0 0 201.39727520435966 247.2" height="247.2" width="201.39727520435966"><g id="textblocktransform"><svg viewBox="0 0 201.39727520435966 247.2" height="247.2" width="201.39727520435966" id="textblock"><g><svg viewBox="0 0 201.39727520435966 247.2" height="247.2" width="201.39727520435966"><g transform="matrix(1,0,0,1,0,0)"><svg width="201.39727520435966" viewBox="1.65 -36.5 29.9 36.7" height="247.2" data-palette-color="#010c80"><g class="wordmark-text-0" data-fill-palette-color="primary" id="text-0"><path d="M12.15-22.65L12.7-22.55 20.2-33.15Q22.2-36 24.55-36.38 26.9-36.75 28.8-35.25L28.8-35.25Q30.05-34.3 30.45-32.7 30.85-31.1 30.2-29.3 29.55-27.5 27.6-25.9L27.6-25.9 19.25-19.15 19.25-18.1Q20.85-18.1 23-17.7 25.15-17.3 26.9-15.9L26.9-15.9Q28.3-14.85 29.33-13.5 30.35-12.15 30.95-10.18 31.55-8.2 31.55-5.2L31.55-5.2Q31.55-2.75 30.23-1.28 28.9 0.2 26.3 0.2L26.3 0.2Q23.7 0.2 22.33-1.28 20.95-2.75 20.95-5.2L20.95-5.2Q20.95-7.95 20.08-9.58 19.2-11.2 17.75-11.95 16.3-12.7 14.6-12.7L14.6-12.7 12.15-12.7 12.15-4.85Q12.15-2.7 10.68-1.3 9.2 0.1 6.9 0.1L6.9 0.1Q4.6 0.1 3.13-1.3 1.65-2.7 1.65-4.85L1.65-4.85 1.65-31.3Q1.65-33.5 3.1-35 4.55-36.5 6.9-36.5L6.9-36.5Q9.4-36.5 10.78-35.02 12.15-33.55 12.15-31.4L12.15-31.4 12.15-22.65Z" fill="#ffffff" data-fill-palette-color="primary"></path></g></svg></g></svg></g></svg></g></svg></g></svg></g><defs></defs></svg><rect width="201.39727520435966" height="247.2" fill="none" stroke="none" visibility="hidden"></rect></g></svg></g></svg>